<?xml version="1.0" encoding="UTF-8" standalone="no"?>
<svg xmlns="http://www.w3.org/2000/svg" width="1000" height="400" viewBox="0 0 1000 400">
    
    <!-- First Icon Replacement -->
    <g transform="translate(0, 0) scale(0.4)">
        <!-- First Icon Content -->
        <g>
            <rect x="49.975" y="86.061" fill="#57555C" width="353.092" height="95.715"/>
            <rect x="49.975" y="228.854" fill="#57555C" width="353.092" height="95.705"/>
            <rect x="49.975" y="371.647" fill="#57555C" width="353.092" height="95.705"/>
        </g>
        <g>
            <rect x="226.511" y="86.061" fill="#3C3A41" width="176.551" height="95.715"/>
            <rect x="226.511" y="228.854" fill="#3C3A41" width="176.551" height="95.705"/>
            <rect x="226.511" y="371.647" fill="#3C3A41" width="176.551" height="95.705"/>
        </g>
        <rect x="23.133" fill="#FFB74D" width="406.767" height="120.971"/>
        <g>
            <rect x="59.708" y="43.965" fill="#FFFFFF" width="23.235" height="24.178"/>
            <rect x="101.508" y="43.965" fill="#FFFFFF" width="23.235" height="24.178"/>
        </g>
        <rect x="23.133" y="156.227" fill="#FFB74D" width="406.767" height="120.971"/>
        <g>
            <rect x="59.708" y="199.964" fill="#FFFFFF" width="23.235" height="24.178"/>
            <rect x="101.508" y="199.964" fill="#FFFFFF" width="23.235" height="24.178"/>
        </g>
        <rect x="23.133" y="312.444" fill="#FFB74D" width="406.767" height="120.982"/>
        <g>
            <rect x="59.708" y="360.851" fill="#FFFFFF" width="23.235" height="24.178"/>
            <rect x="101.508" y="360.851" fill="#FFFFFF" width="23.235" height="24.178"/>
        </g>
        <g>
            <rect x="226.511" fill="#FFA91E" width="203.389" height="120.971"/>
            <rect x="226.511" y="156.227" fill="#FFA91E" width="203.389" height="120.971"/>
            <rect x="226.511" y="312.444" fill="#FFA91E" width="203.389" height="120.982"/>
        </g>
        <path fill="#67BFFF" d="M488.867,406.379C488.867,464.713,441.58,512,383.246,512c-0.251,0-0.503,0-0.754-0.01
            c-28.533-0.188-54.365-11.707-73.255-30.272c-16.963-16.67-28.324-39.015-30.994-63.978c-0.398-3.728-0.618-7.518-0.618-11.361
            c0-31.654,13.937-60.051,35.989-79.412c0.241-0.209,0.482-0.419,0.723-0.618c8.597-7.413,18.408-13.455,29.078-17.811
            c12.073-4.911,25.256-7.675,39.078-7.759c0.251-0.01,0.503-0.01,0.754-0.01C441.58,300.769,488.867,348.045,488.867,406.379z"/>
        <path fill="#0088FF" d="M488.867,406.379C488.867,464.713,441.58,512,383.246,512c-0.251,0-0.503,0-0.754-0.01v-211.21
            c0.251-0.01,0.503-0.01,0.754-0.01C441.58,300.769,488.867,348.045,488.867,406.379z"/>
        <polygon fill="#FFFFFF" points="438.826,391.699 438.826,423.112 398.953,423.112 398.953,465.059 367.54,465.059 
            367.54,423.112 327.666,423.112 327.666,391.699 367.54,391.699 367.54,349.762 398.953,349.762 398.953,391.699 "/>
        <polygon fill="#D9D8DB" points="438.826,391.699 438.826,423.112 398.953,423.112 398.953,465.059 382.492,465.059 
            382.492,349.762 398.953,349.762 398.953,391.699 "/>
    </g>
    
    <!-- Second Icon (Lightbulb) -->
    <g transform="translate(250, 0)">
        <!-- Lightbulb Icon -->
        <svg width="200" height="200" viewBox="0 0 14 14">
            <path fill="#ff9800" d="M13 5.2V4h-3V1H8.8v3H7.6V1H6.4v3H5.2V1H4v3H1v1.2h3v1.2H1v1.2h3v1.2H1V10h3v3h1.2v-3h1.2v3h1.2v-3h1.2v3H10v-3h3V8.8h-3V7.6h3V6.4h-3V5.2h3z"/>
            <path fill="#4caf50" d="M2.2 3.4v7.2c0 .66.54 1.2 1.2 1.2h7.2c.66 0 1.2-.54 1.2-1.2V3.4c0-.66-.54-1.2-1.2-1.2H3.4c-.66 0-1.2.54-1.2 1.2z"/>
            <path fill="#37474f" d="M9.1 9.1H4.9c-.33 0-.6-.27-.6-.6v-3c0-.33.27-.6.6-.6h4.2c.33 0 .6.27.6.6v3c0 .33-.27.6-.6.6z"/>
        </svg>
    </g>
    
    <!-- Third Icon (Server) -->
    <g transform="translate(500, 0)">
        <!-- Server Icon -->
        <svg width="200" height="200" viewBox="0 -4.04 52.096 52.096">
            <g transform="translate(-375.854 -205.496)">
                <path d="M379.139,206.792h45.525a1.989,1.989,0,0,1,1.99,1.989v33.011a1.99,1.99,0,0,1-1.99,1.989H379.139a1.99,1.99,0,0,1-1.989-1.989V208.781A1.989,1.989,0,0,1,379.139,206.792Z" fill="#ffffff" stroke="#ff0050" stroke-miterlimit="10" stroke-width="2.592"/>
                <path d="M383.8,212.6H420a.876.876,0,0,1,.876.875v21.876a.876.876,0,0,1-.876.875H383.8a.876.876,0,0,1-.876-.875V213.479A.876.876,0,0,1,383.8,212.6Z" fill="#ffffff" stroke="#ff0050" stroke-linecap="round" stroke-linejoin="round" stroke-width="1.555"/>
                <path d="M422.98,244.084v2.15a1.99,1.99,0,0,1-1.989,1.989H382.813a1.99,1.99,0,0,1-1.989-1.989v-2.15" fill="#ffffff" stroke="#ff0050" stroke-miterlimit="10" stroke-width="2.592"/>
                <path d="M416.84,224.526h-9.529l-2.838,5.42-5.2-12.321-3.714,6.9H387.6" fill="#ffffff" stroke="#ff0050" stroke-linejoin="round" stroke-width="1.555"/>
            </g>
        </svg>
    </g>
    
    <!-- Fourth Icon Replacement -->
    <g transform="translate(750, 0)">
        <!-- Fourth Icon Content -->
        <svg width="200" height="200" viewBox="-2 0 20 20">
            <g transform="translate(-4 -2)">
                <path fill="#2ca9bc" d="M18,5H15V7H9V5H6A1,1,0,0,0,5,6V20a1,1,0,0,0,1,1H18a1,1,0,0,0,1-1V6A1,1,0,0,0,18,5Z"/>
                <path d="M15,5h3a1,1,0,0,1,1,1V20a1,1,0,0,1-1,1H6a1,1,0,0,1-1-1V6A1,1,0,0,1,6,5H9" fill="none" stroke="#000000" stroke-linecap="round" stroke-linejoin="round" stroke-width="2"/>
                <path d="M12,16V12m2,2H10M15,4a1,1,0,0,0-1-1H10A1,1,0,0,0,9,4V7h6Z" fill="none" stroke="#000000" stroke-linecap="round" stroke-linejoin="round" stroke-width="2"/>
            </g>
        </svg>
    </g>
</svg>
